<?xml version="1.0" encoding="UTF-8" standalone="no"?>
<!DOCTYPE svg PUBLIC "-//W3C//DTD SVG 1.1//EN"
 "http://www.w3.org/Graphics/SVG/1.1/DTD/svg11.dtd">
<!-- Generated by graphviz version 2.40.1 (20161225.0304)
 -->
<!-- Title: snakemake_dag Pages: 1 -->
<svg width="333pt" height="1052pt"
 viewBox="0.00 0.00 332.56 1052.00" xmlns="http://www.w3.org/2000/svg" xmlns:xlink="http://www.w3.org/1999/xlink">
<g id="graph0" class="graph" transform="scale(1 1) rotate(0) translate(4 1048)">
<title>snakemake_dag</title>
<polygon fill="#ffffff" stroke="transparent" points="-4,4 -4,-1048 328.5621,-1048 328.5621,4 -4,4"/>
<!-- 0 -->
<g id="node1" class="node">
<title>0</title>
<path fill="none" stroke="#8fd856" stroke-width="2" d="M113,-36C113,-36 83,-36 83,-36 77,-36 71,-30 71,-24 71,-24 71,-12 71,-12 71,-6 77,0 83,0 83,0 113,0 113,0 119,0 125,-6 125,-12 125,-12 125,-24 125,-24 125,-30 119,-36 113,-36"/>
<text text-anchor="middle" x="98" y="-15.5" font-family="sans" font-size="10.00" fill="#000000">all</text>
</g>
<!-- 1 -->
<g id="node2" class="node">
<title>1</title>
<path fill="none" stroke="#566bd8" stroke-width="2" d="M109.5,-540C109.5,-540 40.5,-540 40.5,-540 34.5,-540 28.5,-534 28.5,-528 28.5,-528 28.5,-516 28.5,-516 28.5,-510 34.5,-504 40.5,-504 40.5,-504 109.5,-504 109.5,-504 115.5,-504 121.5,-510 121.5,-516 121.5,-516 121.5,-528 121.5,-528 121.5,-534 115.5,-540 109.5,-540"/>
<text text-anchor="middle" x="75" y="-519.5" font-family="sans" font-size="10.00" fill="#000000">merge_variants</text>
</g>
<!-- 1&#45;&gt;0 -->
<g id="edge5" class="edge">
<title>1&#45;&gt;0</title>
<path fill="none" stroke="#c0c0c0" stroke-width="2" d="M56.3982,-503.8893C47.1071,-494.0019 36.3169,-481.1227 29,-468 8.534,-431.2949 0,-420.0253 0,-378 0,-378 0,-378 0,-162 0,-113.6274 38.2626,-69.4833 66.9712,-43.1696"/>
<polygon fill="#c0c0c0" stroke="#c0c0c0" stroke-width="2" points="69.6269,-45.4918 74.7754,-36.2319 64.9761,-40.2601 69.6269,-45.4918"/>
</g>
<!-- 14 -->
<g id="node15" class="node">
<title>14</title>
<path fill="none" stroke="#78d856" stroke-width="2" d="M100,-468C100,-468 50,-468 50,-468 44,-468 38,-462 38,-456 38,-456 38,-444 38,-444 38,-438 44,-432 50,-432 50,-432 100,-432 100,-432 106,-432 112,-438 112,-444 112,-444 112,-456 112,-456 112,-462 106,-468 100,-468"/>
<text text-anchor="middle" x="75" y="-447.5" font-family="sans" font-size="10.00" fill="#000000">select_calls</text>
</g>
<!-- 1&#45;&gt;14 -->
<g id="edge21" class="edge">
<title>1&#45;&gt;14</title>
<path fill="none" stroke="#c0c0c0" stroke-width="2" d="M75,-503.8314C75,-496.131 75,-486.9743 75,-478.4166"/>
<polygon fill="#c0c0c0" stroke="#c0c0c0" stroke-width="2" points="78.5001,-478.4132 75,-468.4133 71.5001,-478.4133 78.5001,-478.4132"/>
</g>
<!-- 2 -->
<g id="node3" class="node">
<title>2</title>
<path fill="none" stroke="#d8c356" stroke-width="2" d="M92,-324C92,-324 40,-324 40,-324 34,-324 28,-318 28,-312 28,-312 28,-300 28,-300 28,-294 34,-288 40,-288 40,-288 92,-288 92,-288 98,-288 104,-294 104,-300 104,-300 104,-312 104,-312 104,-318 98,-324 92,-324"/>
<text text-anchor="middle" x="66" y="-303.5" font-family="sans" font-size="10.00" fill="#000000">merge_calls</text>
</g>
<!-- 2&#45;&gt;0 -->
<g id="edge4" class="edge">
<title>2&#45;&gt;0</title>
<path fill="none" stroke="#c0c0c0" stroke-width="2" d="M68.0017,-287.9843C73.4118,-239.2939 88.356,-104.7961 94.8825,-46.0573"/>
<polygon fill="#c0c0c0" stroke="#c0c0c0" stroke-width="2" points="98.3732,-46.3343 95.999,-36.0089 91.416,-45.5612 98.3732,-46.3343"/>
</g>
<!-- 3 -->
<g id="node4" class="node">
<title>3</title>
<path fill="none" stroke="#d88556" stroke-width="2" d="M169,-252C169,-252 139,-252 139,-252 133,-252 127,-246 127,-240 127,-240 127,-228 127,-228 127,-222 133,-216 139,-216 139,-216 169,-216 169,-216 175,-216 181,-222 181,-228 181,-228 181,-240 181,-240 181,-246 175,-252 169,-252"/>
<text text-anchor="middle" x="154" y="-231.5" font-family="sans" font-size="10.00" fill="#000000">snpeff</text>
</g>
<!-- 2&#45;&gt;3 -->
<g id="edge8" class="edge">
<title>2&#45;&gt;3</title>
<path fill="none" stroke="#c0c0c0" stroke-width="2" d="M88.2061,-287.8314C99.045,-278.9632 112.2444,-268.1637 123.9678,-258.5718"/>
<polygon fill="#c0c0c0" stroke="#c0c0c0" stroke-width="2" points="126.2777,-261.2041 131.801,-252.1628 121.845,-255.7864 126.2777,-261.2041"/>
</g>
<!-- 3&#45;&gt;0 -->
<g id="edge3" class="edge">
<title>3&#45;&gt;0</title>
<path fill="none" stroke="#c0c0c0" stroke-width="2" d="M138.6671,-215.6956C131.1837,-205.7552 122.7834,-192.887 118,-180 101.4322,-135.3647 97.9966,-79.5419 97.5921,-46.4405"/>
<polygon fill="#c0c0c0" stroke="#c0c0c0" stroke-width="2" points="101.0912,-46.1226 97.5566,-36.1348 94.0912,-46.1469 101.0912,-46.1226"/>
</g>
<!-- 4 -->
<g id="node5" class="node">
<title>4</title>
<path fill="none" stroke="#56d8d0" stroke-width="2" d="M254,-180C254,-180 224,-180 224,-180 218,-180 212,-174 212,-168 212,-168 212,-156 212,-156 212,-150 218,-144 224,-144 224,-144 254,-144 254,-144 260,-144 266,-150 266,-156 266,-156 266,-168 266,-168 266,-174 260,-180 254,-180"/>
<text text-anchor="middle" x="239" y="-159.5" font-family="sans" font-size="10.00" fill="#000000">multiqc</text>
</g>
<!-- 3&#45;&gt;4 -->
<g id="edge13" class="edge">
<title>3&#45;&gt;4</title>
<path fill="none" stroke="#c0c0c0" stroke-width="2" d="M175.4491,-215.8314C185.8178,-207.0485 198.4229,-196.3712 209.6646,-186.8489"/>
<polygon fill="#c0c0c0" stroke="#c0c0c0" stroke-width="2" points="212.1895,-189.297 217.5578,-180.1628 207.6651,-183.9556 212.1895,-189.297"/>
</g>
<!-- 12 -->
<g id="node13" class="node">
<title>12</title>
<path fill="none" stroke="#56b1d8" stroke-width="2" d="M181.5,-180C181.5,-180 138.5,-180 138.5,-180 132.5,-180 126.5,-174 126.5,-168 126.5,-168 126.5,-156 126.5,-156 126.5,-150 132.5,-144 138.5,-144 138.5,-144 181.5,-144 181.5,-144 187.5,-144 193.5,-150 193.5,-156 193.5,-156 193.5,-168 193.5,-168 193.5,-174 187.5,-180 181.5,-180"/>
<text text-anchor="middle" x="160" y="-159.5" font-family="sans" font-size="10.00" fill="#000000">vcf_to_tsv</text>
</g>
<!-- 3&#45;&gt;12 -->
<g id="edge19" class="edge">
<title>3&#45;&gt;12</title>
<path fill="none" stroke="#c0c0c0" stroke-width="2" d="M155.5141,-215.8314C156.1558,-208.131 156.9188,-198.9743 157.6319,-190.4166"/>
<polygon fill="#c0c0c0" stroke="#c0c0c0" stroke-width="2" points="161.1229,-190.6694 158.4656,-180.4133 154.1471,-190.088 161.1229,-190.6694"/>
</g>
<!-- 4&#45;&gt;0 -->
<g id="edge1" class="edge">
<title>4&#45;&gt;0</title>
<path fill="none" stroke="#c0c0c0" stroke-width="2" d="M235.191,-143.7756C230.2559,-124.0302 219.9467,-92.5958 201,-72 183.1004,-52.5424 156.5636,-38.8617 134.9088,-30.1389"/>
<polygon fill="#c0c0c0" stroke="#c0c0c0" stroke-width="2" points="135.9417,-26.7866 125.3514,-26.4771 133.4372,-33.3233 135.9417,-26.7866"/>
</g>
<!-- 5 -->
<g id="node6" class="node">
<title>5</title>
<path fill="none" stroke="#56d863" stroke-width="2" d="M179.5,-108C179.5,-108 138.5,-108 138.5,-108 132.5,-108 126.5,-102 126.5,-96 126.5,-96 126.5,-84 126.5,-84 126.5,-78 132.5,-72 138.5,-72 138.5,-72 179.5,-72 179.5,-72 185.5,-72 191.5,-78 191.5,-84 191.5,-84 191.5,-96 191.5,-96 191.5,-102 185.5,-108 179.5,-108"/>
<text text-anchor="middle" x="159" y="-87.5" font-family="sans" font-size="10.00" fill="#000000">plot_stats</text>
</g>
<!-- 5&#45;&gt;0 -->
<g id="edge2" class="edge">
<title>5&#45;&gt;0</title>
<path fill="none" stroke="#c0c0c0" stroke-width="2" d="M143.6071,-71.8314C136.5096,-63.454 127.952,-53.3531 120.176,-44.1749"/>
<polygon fill="#c0c0c0" stroke="#c0c0c0" stroke-width="2" points="122.7348,-41.7807 113.6001,-36.4133 117.3939,-46.3056 122.7348,-41.7807"/>
</g>
<!-- 6 -->
<g id="node7" class="node">
<title>6</title>
<path fill="none" stroke="#56d8b9" stroke-width="2" d="M119.5,-612C119.5,-612 36.5,-612 36.5,-612 30.5,-612 24.5,-606 24.5,-600 24.5,-600 24.5,-588 24.5,-588 24.5,-582 30.5,-576 36.5,-576 36.5,-576 119.5,-576 119.5,-576 125.5,-576 131.5,-582 131.5,-588 131.5,-588 131.5,-600 131.5,-600 131.5,-606 125.5,-612 119.5,-612"/>
<text text-anchor="middle" x="78" y="-591.5" font-family="sans" font-size="10.00" fill="#000000">genotype_variants</text>
</g>
<!-- 6&#45;&gt;1 -->
<g id="edge6" class="edge">
<title>6&#45;&gt;1</title>
<path fill="none" stroke="#c0c0c0" stroke-width="2" d="M77.243,-575.8314C76.9221,-568.131 76.5406,-558.9743 76.184,-550.4166"/>
<polygon fill="#c0c0c0" stroke="#c0c0c0" stroke-width="2" points="79.6806,-550.2589 75.7672,-540.4133 72.6867,-550.5503 79.6806,-550.2589"/>
</g>
<!-- 7 -->
<g id="node8" class="node">
<title>7</title>
<path fill="none" stroke="#d85656" stroke-width="2" d="M110,-396C110,-396 40,-396 40,-396 34,-396 28,-390 28,-384 28,-384 28,-372 28,-372 28,-366 34,-360 40,-360 40,-360 110,-360 110,-360 116,-360 122,-366 122,-372 122,-372 122,-384 122,-384 122,-390 116,-396 110,-396"/>
<text text-anchor="middle" x="75" y="-375.5" font-family="sans" font-size="10.00" fill="#000000">hard_filter_calls</text>
</g>
<!-- 7&#45;&gt;2 -->
<g id="edge7" class="edge">
<title>7&#45;&gt;2</title>
<path fill="none" stroke="#c0c0c0" stroke-width="2" d="M72.7289,-359.8314C71.7664,-352.131 70.6218,-342.9743 69.5521,-334.4166"/>
<polygon fill="#c0c0c0" stroke="#c0c0c0" stroke-width="2" points="73.0151,-333.9019 68.3017,-324.4133 66.0691,-334.7702 73.0151,-333.9019"/>
</g>
<!-- 8 -->
<g id="node9" class="node">
<title>8</title>
<path fill="none" stroke="#569ad8" stroke-width="2" d="M174,-324C174,-324 134,-324 134,-324 128,-324 122,-318 122,-312 122,-312 122,-300 122,-300 122,-294 128,-288 134,-288 134,-288 174,-288 174,-288 180,-288 186,-294 186,-300 186,-300 186,-312 186,-312 186,-318 180,-324 174,-324"/>
<text text-anchor="middle" x="154" y="-303.5" font-family="sans" font-size="10.00" fill="#000000">snpeff_db</text>
</g>
<!-- 8&#45;&gt;3 -->
<g id="edge9" class="edge">
<title>8&#45;&gt;3</title>
<path fill="none" stroke="#c0c0c0" stroke-width="2" d="M154,-287.8314C154,-280.131 154,-270.9743 154,-262.4166"/>
<polygon fill="#c0c0c0" stroke="#c0c0c0" stroke-width="2" points="157.5001,-262.4132 154,-252.4133 150.5001,-262.4133 157.5001,-262.4132"/>
</g>
<!-- 9 -->
<g id="node10" class="node">
<title>9</title>
<path fill="none" stroke="#5682d8" stroke-width="2" d="M247.5,-756C247.5,-756 180.5,-756 180.5,-756 174.5,-756 168.5,-750 168.5,-744 168.5,-744 168.5,-732 168.5,-732 168.5,-726 174.5,-720 180.5,-720 180.5,-720 247.5,-720 247.5,-720 253.5,-720 259.5,-726 259.5,-732 259.5,-732 259.5,-744 259.5,-744 259.5,-750 253.5,-756 247.5,-756"/>
<text text-anchor="middle" x="214" y="-735.5" font-family="sans" font-size="10.00" fill="#000000">samtools_stats</text>
</g>
<!-- 9&#45;&gt;4 -->
<g id="edge10" class="edge">
<title>9&#45;&gt;4</title>
<path fill="none" stroke="#c0c0c0" stroke-width="2" d="M214,-719.8146C214,-692.4983 214,-639.25 214,-594 214,-594 214,-594 214,-306 214,-265.0964 223.913,-218.6076 231.2546,-189.7868"/>
<polygon fill="#c0c0c0" stroke="#c0c0c0" stroke-width="2" points="234.667,-190.572 233.82,-180.0111 227.8963,-188.7952 234.667,-190.572"/>
</g>
<!-- 10 -->
<g id="node11" class="node">
<title>10</title>
<path fill="none" stroke="#d86e56" stroke-width="2" d="M284,-252C284,-252 254,-252 254,-252 248,-252 242,-246 242,-240 242,-240 242,-228 242,-228 242,-222 248,-216 254,-216 254,-216 284,-216 284,-216 290,-216 296,-222 296,-228 296,-228 296,-240 296,-240 296,-246 290,-252 284,-252"/>
<text text-anchor="middle" x="269" y="-231.5" font-family="sans" font-size="10.00" fill="#000000">fastqc</text>
</g>
<!-- 10&#45;&gt;4 -->
<g id="edge12" class="edge">
<title>10&#45;&gt;4</title>
<path fill="none" stroke="#c0c0c0" stroke-width="2" d="M261.4297,-215.8314C258.1507,-207.9617 254.238,-198.5712 250.6055,-189.8533"/>
<polygon fill="#c0c0c0" stroke="#c0c0c0" stroke-width="2" points="253.7492,-188.2979 246.6722,-180.4133 247.2876,-190.9902 253.7492,-188.2979"/>
</g>
<!-- 11 -->
<g id="node12" class="node">
<title>11</title>
<path fill="none" stroke="#d6d856" stroke-width="2" d="M219,-900C219,-900 145,-900 145,-900 139,-900 133,-894 133,-888 133,-888 133,-876 133,-876 133,-870 139,-864 145,-864 145,-864 219,-864 219,-864 225,-864 231,-870 231,-876 231,-876 231,-888 231,-888 231,-894 225,-900 219,-900"/>
<text text-anchor="middle" x="182" y="-879.5" font-family="sans" font-size="10.00" fill="#000000">mark_duplicates</text>
</g>
<!-- 11&#45;&gt;4 -->
<g id="edge11" class="edge">
<title>11&#45;&gt;4</title>
<path fill="none" stroke="#c0c0c0" stroke-width="2" d="M220.0534,-863.9698C262.1155,-841.0867 324,-797.337 324,-738 324,-738 324,-738 324,-306 324,-265.1184 326.2483,-250.9259 305,-216 297.3839,-203.4814 285.7912,-192.5709 274.4354,-183.8963"/>
<polygon fill="#c0c0c0" stroke="#c0c0c0" stroke-width="2" points="276.4213,-181.0131 266.2687,-177.9841 272.3164,-186.6832 276.4213,-181.0131"/>
</g>
<!-- 11&#45;&gt;9 -->
<g id="edge17" class="edge">
<title>11&#45;&gt;9</title>
<path fill="none" stroke="#c0c0c0" stroke-width="2" d="M186.5814,-863.5357C189.132,-853.118 192.323,-839.8514 195,-828 199.6329,-807.4895 204.5264,-784.2685 208.1868,-766.5512"/>
<polygon fill="#c0c0c0" stroke="#c0c0c0" stroke-width="2" points="211.7079,-766.8044 210.2933,-756.3044 204.8513,-765.3948 211.7079,-766.8044"/>
</g>
<!-- 16 -->
<g id="node17" class="node">
<title>16</title>
<path fill="none" stroke="#56c9d8" stroke-width="2" d="M113.5,-756C113.5,-756 58.5,-756 58.5,-756 52.5,-756 46.5,-750 46.5,-744 46.5,-744 46.5,-732 46.5,-732 46.5,-726 52.5,-720 58.5,-720 58.5,-720 113.5,-720 113.5,-720 119.5,-720 125.5,-726 125.5,-732 125.5,-732 125.5,-744 125.5,-744 125.5,-750 119.5,-756 113.5,-756"/>
<text text-anchor="middle" x="86" y="-735.5" font-family="sans" font-size="10.00" fill="#000000">call_variants</text>
</g>
<!-- 11&#45;&gt;16 -->
<g id="edge24" class="edge">
<title>11&#45;&gt;16</title>
<path fill="none" stroke="#c0c0c0" stroke-width="2" d="M145.643,-863.8182C131.2607,-854.8918 115.8443,-842.8354 106,-828 93.8105,-809.6304 88.9481,-784.975 87.057,-766.1152"/>
<polygon fill="#c0c0c0" stroke="#c0c0c0" stroke-width="2" points="90.5383,-765.7382 86.269,-756.0416 83.5596,-766.2841 90.5383,-765.7382"/>
</g>
<!-- 19 -->
<g id="node20" class="node">
<title>19</title>
<path fill="none" stroke="#56d8a2" stroke-width="2" d="M173.5,-828C173.5,-828 126.5,-828 126.5,-828 120.5,-828 114.5,-822 114.5,-816 114.5,-816 114.5,-804 114.5,-804 114.5,-798 120.5,-792 126.5,-792 126.5,-792 173.5,-792 173.5,-792 179.5,-792 185.5,-798 185.5,-804 185.5,-804 185.5,-816 185.5,-816 185.5,-822 179.5,-828 173.5,-828"/>
<text text-anchor="middle" x="150" y="-807.5" font-family="sans" font-size="10.00" fill="#000000">bam_index</text>
</g>
<!-- 11&#45;&gt;19 -->
<g id="edge26" class="edge">
<title>11&#45;&gt;19</title>
<path fill="none" stroke="#c0c0c0" stroke-width="2" d="M173.925,-863.8314C170.3898,-855.8771 166.164,-846.369 162.2544,-837.5723"/>
<polygon fill="#c0c0c0" stroke="#c0c0c0" stroke-width="2" points="165.4435,-836.1299 158.1837,-828.4133 159.0468,-838.9729 165.4435,-836.1299"/>
</g>
<!-- 12&#45;&gt;5 -->
<g id="edge14" class="edge">
<title>12&#45;&gt;5</title>
<path fill="none" stroke="#c0c0c0" stroke-width="2" d="M159.7477,-143.8314C159.6407,-136.131 159.5135,-126.9743 159.3947,-118.4166"/>
<polygon fill="#c0c0c0" stroke="#c0c0c0" stroke-width="2" points="162.8944,-118.3637 159.2557,-108.4133 155.8951,-118.4609 162.8944,-118.3637"/>
</g>
<!-- 13 -->
<g id="node14" class="node">
<title>13</title>
<path fill="none" stroke="#d8b456" stroke-width="2" d="M114,-684C114,-684 52,-684 52,-684 46,-684 40,-678 40,-672 40,-672 40,-660 40,-660 40,-654 46,-648 52,-648 52,-648 114,-648 114,-648 120,-648 126,-654 126,-660 126,-660 126,-672 126,-672 126,-678 120,-684 114,-684"/>
<text text-anchor="middle" x="83" y="-663.5" font-family="sans" font-size="10.00" fill="#000000">combine_calls</text>
</g>
<!-- 13&#45;&gt;6 -->
<g id="edge15" class="edge">
<title>13&#45;&gt;6</title>
<path fill="none" stroke="#c0c0c0" stroke-width="2" d="M81.7383,-647.8314C81.2035,-640.131 80.5677,-630.9743 79.9734,-622.4166"/>
<polygon fill="#c0c0c0" stroke="#c0c0c0" stroke-width="2" points="83.4632,-622.1467 79.2787,-612.4133 76.48,-622.6317 83.4632,-622.1467"/>
</g>
<!-- 14&#45;&gt;7 -->
<g id="edge16" class="edge">
<title>14&#45;&gt;7</title>
<path fill="none" stroke="#c0c0c0" stroke-width="2" d="M75,-431.8314C75,-424.131 75,-414.9743 75,-406.4166"/>
<polygon fill="#c0c0c0" stroke="#c0c0c0" stroke-width="2" points="78.5001,-406.4132 75,-396.4133 71.5001,-406.4133 78.5001,-406.4132"/>
</g>
<!-- 15 -->
<g id="node16" class="node">
<title>15</title>
<path fill="none" stroke="#56d892" stroke-width="2" d="M205.5,-972C205.5,-972 158.5,-972 158.5,-972 152.5,-972 146.5,-966 146.5,-960 146.5,-960 146.5,-948 146.5,-948 146.5,-942 152.5,-936 158.5,-936 158.5,-936 205.5,-936 205.5,-936 211.5,-936 217.5,-942 217.5,-948 217.5,-948 217.5,-960 217.5,-960 217.5,-966 211.5,-972 205.5,-972"/>
<text text-anchor="middle" x="182" y="-951.5" font-family="sans" font-size="10.00" fill="#000000">map_reads</text>
</g>
<!-- 15&#45;&gt;11 -->
<g id="edge18" class="edge">
<title>15&#45;&gt;11</title>
<path fill="none" stroke="#c0c0c0" stroke-width="2" d="M182,-935.8314C182,-928.131 182,-918.9743 182,-910.4166"/>
<polygon fill="#c0c0c0" stroke="#c0c0c0" stroke-width="2" points="185.5001,-910.4132 182,-900.4133 178.5001,-910.4133 185.5001,-910.4132"/>
</g>
<!-- 16&#45;&gt;13 -->
<g id="edge20" class="edge">
<title>16&#45;&gt;13</title>
<path fill="none" stroke="#c0c0c0" stroke-width="2" d="M85.243,-719.8314C84.9221,-712.131 84.5406,-702.9743 84.184,-694.4166"/>
<polygon fill="#c0c0c0" stroke="#c0c0c0" stroke-width="2" points="87.6806,-694.2589 83.7672,-684.4133 80.6867,-694.5503 87.6806,-694.2589"/>
</g>
<!-- 17 -->
<g id="node18" class="node">
<title>17</title>
<path fill="none" stroke="#d89c56" stroke-width="2" d="M161,-1044C161,-1044 99,-1044 99,-1044 93,-1044 87,-1038 87,-1032 87,-1032 87,-1020 87,-1020 87,-1014 93,-1008 99,-1008 99,-1008 161,-1008 161,-1008 167,-1008 173,-1014 173,-1020 173,-1020 173,-1032 173,-1032 173,-1038 167,-1044 161,-1044"/>
<text text-anchor="middle" x="130" y="-1023.5" font-family="sans" font-size="10.00" fill="#000000">trim_reads_pe</text>
</g>
<!-- 17&#45;&gt;15 -->
<g id="edge22" class="edge">
<title>17&#45;&gt;15</title>
<path fill="none" stroke="#c0c0c0" stroke-width="2" d="M143.1218,-1007.8314C149.0499,-999.6232 156.1729,-989.7606 162.6933,-980.7323"/>
<polygon fill="#c0c0c0" stroke="#c0c0c0" stroke-width="2" points="165.684,-982.5693 168.7015,-972.4133 160.0092,-978.4708 165.684,-982.5693"/>
</g>
<!-- 18 -->
<g id="node19" class="node">
<title>18</title>
<path fill="none" stroke="#56d87b" stroke-width="2" d="M265,-1044C265,-1044 203,-1044 203,-1044 197,-1044 191,-1038 191,-1032 191,-1032 191,-1020 191,-1020 191,-1014 197,-1008 203,-1008 203,-1008 265,-1008 265,-1008 271,-1008 277,-1014 277,-1020 277,-1020 277,-1032 277,-1032 277,-1038 271,-1044 265,-1044"/>
<text text-anchor="middle" x="234" y="-1023.5" font-family="sans" font-size="10.00" fill="#000000">trim_reads_se</text>
</g>
<!-- 18&#45;&gt;15 -->
<g id="edge23" class="edge">
<title>18&#45;&gt;15</title>
<path fill="none" stroke="#c0c0c0" stroke-width="2" d="M220.8782,-1007.8314C214.9501,-999.6232 207.8271,-989.7606 201.3067,-980.7323"/>
<polygon fill="#c0c0c0" stroke="#c0c0c0" stroke-width="2" points="203.9908,-978.4708 195.2985,-972.4133 198.316,-982.5693 203.9908,-978.4708"/>
</g>
<!-- 19&#45;&gt;16 -->
<g id="edge25" class="edge">
<title>19&#45;&gt;16</title>
<path fill="none" stroke="#c0c0c0" stroke-width="2" d="M133.8501,-791.8314C126.3283,-783.3694 117.2435,-773.1489 109.0196,-763.8971"/>
<polygon fill="#c0c0c0" stroke="#c0c0c0" stroke-width="2" points="111.627,-761.5621 102.3673,-756.4133 106.3951,-766.2127 111.627,-761.5621"/>
</g>
</g>
</svg>
